Patient4_TMGait_0pt8_01_left_40_EMG.mot
version=1
nRows=33
nColumns=33
inDegrees=no
endheader
time	1LAddLong	2LGlutMax	3LGlutMed	4LIliopsoas	5LSemiMemb	6LBicFemLong	7LRecFem	8LVastMed	9LVastLat	10LGasMed	11LTibAnt	12lTibPost	13LPeroneusLong	14LSol	15LExtDigLong	16LFlexDigLong	17RAddLong	18RGlutMax	19RGlutMed	20RIliopsoas	21RSemiMemb	22RBicFemLong	23RRecFem	24RVastMed	25RVastLat	26RGasMed	27RTibAnt	28RTibPost	29RPeroneusLong	30RSol	31RExtDigLong	32RFlexDigLong
44.32	-0.000916	0.33585	-0.022736	-0.016327	-0.002594	-0.026093	0.20401	0.009766	0.18814	0.015717	0.032959	-0.037537	0.003357	0.000153	0.46738	-0.013275	0.023956	-0.16541	-0.37781	0.060425	-0.22964	0.43396	0.057068	0.1355	0.059509	0.063324	-0.24857	-0.008545	-0.23712	-0.094147	-0.001221	-0.001068
44.321	-0.00061	0.33936	-0.040131	-0.001831	-0.002594	-0.011292	0.19196	0.006714	0.20111	-0.001526	0.059509	-0.01236	0.001984	0.020599	-0.02182	-0.015411	-0.014648	-0.17822	-0.67978	0.054779	0.021515	0.6572	0.091553	0.11581	0.053558	0.09491	-0.20386	-0.012512	-0.007629	0.016174	0.000763	-0.005188
44.322	0.002594	0.1889	-0.028076	0.036316	-0.000153	-0.024872	0.19226	0.00946	0.21835	-0.03891	0.057831	-0.021667	0.009308	-0.006104	-0.29083	-0.014343	-0.037079	-0.24872	0.14847	0.040741	0.24216	0.54916	0.058136	0.13351	0.029602	0.047913	-0.054169	-0.015106	1.0971	0.041962	-0.001831	-0.00946
44.323	0.000305	0.061951	0.010834	0.019379	0.005035	-0.017242	0.15396	0.010529	0.22629	-0.039978	0.10696	-0.009308	0.047455	-0.058899	-0.26016	-0.010681	-0.038757	-0.26215	0.44632	0.008087	0.24429	0.36453	0.10605	0.067444	-0.018005	0.012054	-0.020142	-0.020142	0.12451	0.068817	0.00061	-0.009918
44.324	0.001831	0.02121	-0.002747	0.005188	0.00473	0.011139	0.1239	0.010529	0.21835	-0.013123	0.06897	0.004883	0.041809	-0.088348	0.017395	-0.011749	-0.031586	-0.23407	-0.087585	0.005188	0.17105	0.095215	0.12283	0.08194	-0.025177	-0.075989	-0.026398	-0.02594	0.048676	0.084229	-0.001831	-0.006256
44.325	0.002441	-0.023651	-0.032349	0.001526	-0.009003	0.006866	0.1059	0.012512	0.23666	0.010681	0.055389	-0.013733	-0.002441	-0.091858	-0.028992	-0.026703	-0.05661	-0.23911	-0.33722	-0.011749	0.19974	0.009918	0.10193	0.079346	-0.01297	-0.021057	0.001068	-0.037537	0.14542	0.12573	0.000458	-0.002289
44.326	0.00351	-0.001984	-0.02121	-0.000916	-0.030823	-0.0177	0.07782	0.014191	0.25574	0.038757	0.10544	-0.007324	-0.038147	-0.13626	-0.26886	-0.006256	-0.079498	-0.13458	-0.42084	-0.037842	-0.001068	0.014648	0.085754	0.095062	0.026703	-0.010834	0.08316	-0.021667	-0.19287	0.11963	-0.002747	-0.012665
44.327	0.005646	0.00473	-0.025635	0.007629	-0.022125	-0.061188	0.066833	0.002899	0.26077	0.067902	0.2182	-0.006104	-0.060883	-0.15732	0.44342	-0.019379	-0.078125	-0.072784	-0.24002	-0.09201	0.029602	-0.085449	0.11093	0.091553	0.083008	-0.033569	0.12787	0.043793	-0.83038	-0.11063	-0.000153	-0.021667
44.328	0.000458	0.046997	-0.010223	0.015411	0.007324	-0.039063	0.069885	0.004425	0.25894	0.041046	0.15472	-0.014648	-0.041046	-0.08606	-0.16632	-0.004425	-0.05188	-0.000458	-0.094757	-0.097351	0.23422	-0.18539	0.1683	-0.001678	0.042267	-0.001831	0.040131	0.013275	-0.54886	-0.19943	-0.000916	-0.010681
44.329	0.005798	0.06073	-0.021667	0.003815	0.010223	-0.031433	0.056763	0.002899	0.2594	0.001678	-0.094299	-0.010529	0.070953	-0.046234	-0.18768	-0.000305	-0.007172	-0.033569	-0.21271	0.077667	0.15579	-0.11398	0.15289	-0.066833	-0.053864	0.012054	-0.048523	-0.103	0.059967	-0.018463	-0.000458	-0.007477
44.33	0.005646	0.07843	-0.042725	0.00351	0.004425	-0.046844	0.044708	0.002747	0.26871	0.040741	-0.22751	-0.016632	0.068665	-0.038605	-0.18204	-0.00473	0.008087	-0.034637	-0.17349	0.07843	0.071869	-0.085144	0.12528	-0.10208	-0.070801	0.003662	-0.060883	-0.16937	0.029144	0.058746	0.007324	-0.008698
44.331	0.005798	0.07782	-0.032501	-0.006714	-0.001373	-0.052795	0.059052	0.002289	0.26306	0.021515	-0.26047	-0.015717	0.080872	-0.02121	0.028992	0.002136	0.018768	0.11215	0.4274	0.065002	-0.046997	-0.065613	0.13733	-0.13321	-0.011292	-0.016479	-0.037384	0.089569	-0.2507	0.38376	-0.001678	-0.003052
44.332	0.013733	0.091705	-0.042572	-0.000763	-0.014191	-0.04715	0.027618	0.002136	0.27084	0.028381	-0.007782	-0.022736	0.050507	-0.038147	0.18784	-0.002594	0.033569	0.22018	0.42816	0.12329	-0.030823	-0.10529	0.2005	-0.16525	0.01709	-0.030823	0.012512	0.23697	-0.51743	0.59036	0.001221	0.00061
44.333	0.005646	0.086823	0.007019	-0.001831	-0.001526	-0.059967	0.011749	0.006561	0.26535	0.00885	0.041351	-0.009766	0.048523	-0.003967	-0.021057	-0.011292	0.028687	0.11978	0.94391	0.11459	0.043793	-0.17273	0.23544	-0.15549	-0.001678	-0.052643	0.018311	-0.11612	0.39032	0.60791	-0.000305	0.00351
44.334	0.009308	0.043182	-0.036926	0.001221	-0.005188	-0.055084	-0.015106	-0.004578	0.27969	-0.035706	-0.085602	-0.018463	0.073547	-0.001068	-0.025635	0.003967	0.00824	0.2124	0.62347	0.00946	-0.12421	-0.15778	0.16632	-0.15167	0.018311	-0.0177	0.002441	-0.085602	0.86487	0.35049	-0.001373	0.005341
44.335	0.007935	0.014038	-0.063324	-0.010071	-0.001831	-0.076294	-0.038757	0.001678	0.28748	-0.041656	-0.039825	-0.01236	0.034485	-0.088654	0.083923	0.02121	0.025635	0.31845	0.57678	-0.017853	-0.091858	-0.17166	0.045166	-0.21698	0.071564	0.027161	0.012512	-0.13107	-0.12039	-0.67215	-0.001678	-0.007935
44.336	0.013885	0.005341	-0.04776	-0.007782	-0.004272	-0.090332	-0.036469	0.005341	0.28122	-0.06424	0.008087	-0.007019	0.034332	-0.10498	0.16495	0.015411	0.076141	0.43381	0.10284	0.028076	0.019836	-0.14984	0.0737	-0.2533	0.064545	0.047302	-0.018921	0.28076	0.033569	-0.64346	-0.000153	-0.005646
44.337	0.008087	-0.041656	-0.026398	-0.014496	-0.010681	-0.07431	-0.048065	-0.001221	0.26611	-0.087128	-0.015717	-0.0177	0.031738	-0.051422	0.20538	0.009613	0.10132	0.55359	-0.06134	-0.018921	-0.03479	-0.10513	0.042114	-0.19501	0.031128	0.027313	-0.002441	0.13306	-0.41321	-0.050964	0	-0.000458
44.338	0.004425	-0.097351	-0.037689	-0.023804	0.002594	-0.068817	-0.049438	0.007324	0.26749	-0.059204	-0.098724	-0.007935	0.00061	-0.079498	-0.07843	0.005951	0.047302	0.44556	0.19318	-0.035553	-0.049591	-0.005646	-0.15579	-0.038757	0.008698	0.022888	0.016937	0.022583	-0.068054	-0.25375	0.003662	-0.001678
44.339	0.005035	-0.12741	-0.02121	-0.015106	-0.006561	-0.029449	-0.058441	0.001526	0.24963	-0.058441	-0.10346	0.002136	0.023804	-0.056458	-0.17334	0.01297	-0.062256	0.29022	0.23025	-0.049438	-0.052948	0.061798	-0.27725	0.17517	0.044861	-0.009155	0.051727	-0.016022	-0.47058	-0.91522	0.000458	-0.004272
44.34	0.00351	-0.13779	0.010681	-0.001221	-0.006256	-0.011749	-0.056152	0.002594	0.24826	-0.075836	-0.055542	0.00351	0.075073	0.00946	-0.20645	0.018921	-0.09613	0.27054	0.51941	-0.056	0.11688	-0.087891	-0.16373	0.22446	0.08194	-0.046387	0.054779	-0.028839	-0.65659	-0.96207	-0.002289	-0.005188
44.341	0.009613	-0.19638	-0.039978	-0.006714	-0.008545	-0.01709	-0.071716	0.00946	0.23499	-0.045929	0.040588	0.002289	0.13611	0.014038	-0.21118	0.01709	-0.043793	0.26138	0.1889	0.024872	-0.085907	-0.007935	-0.047302	0.17777	0.054474	-0.032501	0.011292	-0.02655	0.66498	-0.57892	0.006104	-0.014038
44.342	0.005188	-0.21942	-0.02121	0.010071	-0.007629	-0.029449	-0.085297	0.002899	0.23697	-0.003662	0.038147	0.018005	0.087433	-0.052185	-0.083008	0.019531	0.006409	0.11139	-0.27893	-0.000153	-0.32944	0.1004	0.050049	0.010986	0.032349	-0.019379	-0.03952	-0.014191	1.7505	-0.13214	0.000305	-0.012817
44.343	0.014954	-0.24582	-0.041809	0.006714	0.00885	-0.031738	-0.062561	0.006104	0.25955	0.041199	-0.028992	0.022888	0.050507	-0.13977	0.085297	0.01358	0.068054	0.032959	-0.72311	0.05127	-0.28641	-0.013123	0.074158	-0.084991	-0.020294	-0.015869	0.053558	0.019379	0.17578	0.58258	-0.004883	-0.009155
44.344	0.006409	-0.18234	-0.0737	0.018311	0.014954	-0.016479	-0.095062	0.005646	0.24429	-0.021973	-0.067749	0.005798	0.067749	-0.11932	0.044861	0.027771	0.045929	0.11444	0.13809	0.10071	-0.21881	-0.039673	0.066986	-0.038605	-0.025635	-0.019684	0.1329	-0.012054	-0.28549	0.36682	0.000153	-0.008392
44.345	0.001221	-0.15625	-0.07843	0.016479	0.010986	-0.023499	-0.083923	0.00351	0.24368	-0.064087	-0.08255	0.008698	0.016174	-0.075989	0.19226	0.026245	-0.006866	0.1088	-0.24826	0.084839	-0.16281	0.10407	0.011444	-0.01358	-0.027313	0.014496	0.10757	-0.059204	-0.34653	0.13687	-0.000305	-0.007782
44.346	0.009003	-0.13107	-0.059052	0.058289	0.012207	-0.047302	-0.10254	0.009918	0.25665	-0.085602	-0.088348	0.005188	-0.022888	-0.10681	0.10147	0.019684	-0.065613	0.11871	-1.0542	0.02182	-0.04303	0.048828	-0.082855	-0.010529	-0.012665	-0.032349	-0.028076	-0.025787	0.2034	0.14633	-0.001373	-0.011902
44.347	0.013275	-0.13107	-0.035553	0.044098	-0.014648	-0.082397	-0.11673	0.000305	0.2478	-0.14465	-0.004425	0.019989	-0.044708	-0.1004	-0.018158	0.029297	-0.043335	0.16449	-1.2263	-0.021667	0.29083	-0.026855	-0.11185	-0.026398	0.060577	-0.075531	-0.046997	0.032654	0.18036	0.17456	-0.000763	-0.010376
44.348	0.002289	-0.083466	-0.012054	0.038147	-0.047913	-0.10559	-0.11414	0.00061	0.26306	-0.20447	0.072021	0.024261	-0.062714	-0.10529	0.005646	0.023804	-0.056763	0.22049	0.10544	-0.11795	0.13443	0.10605	-0.066986	0.10498	0.062714	-0.05661	-0.004883	0.02655	-0.25284	-0.18997	-0.002289	-0.009155
44.349	0.008392	-0.049286	0.016632	-0.009155	0.001526	-0.11093	-0.12054	0.001068	0.26169	-0.14954	0.2478	0.028839	-0.00412	-0.084686	-0.051422	0.033264	-0.078735	0.24323	0.43655	-0.10666	0.22461	0.12024	-0.035858	0.12573	0.055389	0.012207	-0.03418	-0.37689	-0.056	-0.40482	-0.001526	-0.006256
44.35	0.019531	-0.046234	0.015717	-0.016479	0.001373	-0.12848	-0.11475	-0.002289	0.2684	-0.035553	0.16266	0.02182	0.059357	-0.042114	-0.16022	0.028687	-0.037231	0.27893	-0.38498	0.010834	0.098724	-0.022888	0.038605	0.060425	0.018921	0.022125	0.012512	0.11215	-0.057373	-0.5452	-0.001221	0.001984
44.351	0.015259	-0.025635	0.071106	-0.003662	-0.003052	-0.13107	-0.13336	-0.004578	0.26566	0.071716	-0.067291	0.023956	0.093079	-0.036011	-0.30563	0.018463	0.004425	0.3154	-0.21835	0.015564	0.17532	-0.17593	0.06546	0.031281	0.027924	0.040588	0.028839	-0.029755	0.058136	-0.47852	0.001068	0.00351
44.352	0.02243	-0.032349	0.00473	0.007629	0.010071	-0.13153	-0.10956	-0.006866	0.26382	0.11459	-0.00946	0.022583	0.03479	-0.069733	-0.16052	0.005341	0.04364	0.37705	0.33112	0	0.33371	-0.34393	0.088501	-0.081024	-0.026093	0.001831	0.005341	-0.013733	0.006256	-0.18753	0.001068	-0.004272
